<?xml version="1.0" encoding="UTF-8" standalone="no"?>
<!-- Created with Inkscape (http://www.inkscape.org/) -->

<svg
   width="48.389469mm"
   height="41.627777mm"
   viewBox="0 0 48.389469 41.627777"
   version="1.1"
   id="svg5"
   xml:space="preserve"
   inkscape:version="1.2.2 (b0a8486, 2022-12-01)"
   sodipodi:docname="LogoOhneSchriftzugWeißerHintergrund.svg"
   xmlns:inkscape="http://www.inkscape.org/namespaces/inkscape"
   xmlns:sodipodi="http://sodipodi.sourceforge.net/DTD/sodipodi-0.dtd"
   xmlns="http://www.w3.org/2000/svg"
   xmlns:svg="http://www.w3.org/2000/svg"><sodipodi:namedview
     id="namedview7"
     pagecolor="#505050"
     bordercolor="#eeeeee"
     borderopacity="1"
     inkscape:showpageshadow="0"
     inkscape:pageopacity="0"
     inkscape:pagecheckerboard="0"
     inkscape:deskcolor="#505050"
     inkscape:document-units="mm"
     showgrid="false"
     inkscape:zoom="3.0045164"
     inkscape:cx="131.46874"
     inkscape:cy="70.560439"
     inkscape:window-width="1700"
     inkscape:window-height="798"
     inkscape:window-x="38"
     inkscape:window-y="25"
     inkscape:window-maximized="0"
     inkscape:current-layer="svg5" /><defs
     id="defs2"><clipPath
       clipPathUnits="userSpaceOnUse"
       id="clipPath519"><path
         d="m 225.111,876.919 c -5.807,0 -10.515,-4.707 -10.515,-10.515 v 0 -99.896 c 0,-5.807 4.708,-10.515 10.515,-10.515 v 0 h 120.051 c 5.807,0 10.515,4.708 10.515,10.515 v 0 99.896 c 0,5.808 -4.708,10.515 -10.515,10.515 v 0 z"
         id="path517" /></clipPath><clipPath
       clipPathUnits="userSpaceOnUse"
       id="clipPath543"><path
         d="M 0,914.609 H 566.36 V 0 H 0 Z"
         id="path541" /></clipPath></defs><path
     d="M 3.3513888,41.09861 H 45.038079 c 1.558572,0 2.822222,-1.26365 2.822222,-2.822222 V 3.3513888 c 0,-1.5585722 -1.26365,-2.82222214 -2.822222,-2.82222214 H 3.3513888 c -1.5585722,0 -2.82222214,1.26364994 -2.82222214,2.82222214 V 38.276388 c 0,1.558572 1.26364994,2.822222 2.82222214,2.822222 z"
     style="display:inline;fill:#ffffff;fill-opacity:1;stroke:#2f636d;stroke-width:1.05833;stroke-linecap:butt;stroke-linejoin:miter;stroke-miterlimit:10;stroke-dasharray:none;stroke-opacity:1"
     id="path511"
     inkscape:label="path511" /><g
     id="g513"
     transform="matrix(0.35277776,0,0,-0.35277778,-75.175391,307.859)"
     style="fill:#2f636d;fill-opacity:1"
     inkscape:export-filename="LogoOhneSchriftzug.svg"
     inkscape:export-xdpi="5000"
     inkscape:export-ydpi="5000"><g
       id="g515"
       clip-path="url(#clipPath519)"
       style="fill:#2f636d;fill-opacity:1"><g
         id="g521"
         transform="translate(269.1156,776.4195)"
         style="fill:#2f636d;fill-opacity:1"><path
           d="m 0,0 c 0.881,6.059 2.629,11.959 3.158,18.091 0.499,5.783 0.599,11.553 0.257,17.34 -0.07,1.184 -0.32,2.333 1.167,3.057 5.557,2.708 9.751,6.954 13.229,12.449 2.262,-2.689 2.836,-5.819 3.631,-8.68 3.467,-12.48 5.294,-25.08 2.051,-37.983 C 22.892,1.885 23.336,-0.76 21.928,-3.007 19.322,-1.128 20.462,-4.156 20.363,-4.49 19.665,-6.849 17.847,-7.603 15.802,-8.01 14.711,-8.227 13.203,-8.789 12.713,-7.163 11.716,-3.855 9.296,-2.829 6.212,-2.867 3.642,-2.898 1.803,-1.533 0,0"
           style="fill:#60898b;fill-opacity:1;fill-rule:nonzero;stroke:none"
           id="path527"
           transform="translate(-3.4115003,-45.841598)" /><path
           d="M 0,0 C 9.788,4.834 13.657,16.078 8.831,25.662 4.231,34.796 -7.158,38.701 -16.244,34.261 -25.914,29.535 -29.922,18.337 -25.302,8.954 -20.51,-0.778 -9.479,-4.681 0,0 M 21.027,31.932 C 14.709,28.167 13.032,25.329 14.342,19.979 16.752,10.14 10.154,-1.563 0.626,-5.528 c -2.04,-0.849 -2.56,-1.675 -2.357,-3.859 1.238,-13.361 -0.17,-26.441 -5.532,-38.829 -8.744,-20.2 -24.023,-31.531 -44.597,-37.495 -1.47,-0.426 -7.255,-2.103 -8.818,-2.556 -10.287,-2.983 -7.347,-2.131 -16.165,-4.687 -14.696,-4.26 -19.105,-5.538 -27.922,-8.094 -1.47,-0.426 -2.939,-0.852 -2.939,-0.852 -2.51,3.305 -5.222,7.089 -8.383,10.923 6.709,3.36 24.498,5.614 31.132,8.266 19.302,7.716 33.235,18.001 41.949,35.476 9.205,18.46 12.618,37.966 8.901,58.547 -1.953,10.814 2.835,20.731 11.78,25.818 9.313,5.296 26.648,12.238 35.102,5.226 0.99,-0.822 -4.651,-8.994 -3.444,-8.851 2.454,0.29 6.796,-1.372 9.256,-1.135 0.281,-0.13 2.157,-0.308 2.438,-0.438"
           style="fill:#2f636d;fill-opacity:1;fill-rule:nonzero;stroke:none"
           id="path523" /></g><g
         id="g525"
         transform="translate(265.7041,730.5779)"
         style="fill:#60898b;fill-opacity:1" /><g
         id="g529"
         transform="translate(268.2746,734.7503)"
         style="fill:#2f636d;fill-opacity:1"><path
           d="m 0,0 c 1.558,-1.325 3.147,-2.504 5.369,-2.477 2.664,0.032 4.756,-0.854 5.618,-3.713 0.423,-1.406 1.726,-0.92 2.669,-0.732 1.767,0.352 3.338,1.003 3.942,3.042 0.085,0.289 -0.9,2.905 1.352,1.281 -2.862,-11.247 -8.063,-21.322 -15.273,-30.385 -0.62,-0.778 -1.118,-1.69 -2.5,-1.35 -7.299,1.792 -14.779,1.965 -22.92,2.246 C -10.694,-23.523 -4.007,-12.643 0,0"
           style="fill:#2f636d;fill-opacity:1;fill-rule:nonzero;stroke:none"
           id="path531" /></g><g
         id="g533"
         transform="translate(265.6106,803.1569)"
         style="fill:#2f636d;fill-opacity:1"><path
           d="m 0,0 c 0.97,-2.376 -0.299,-5.106 -2.819,-6.068 -2.248,-0.858 -5.017,0.387 -5.911,2.655 -0.938,2.384 0.14,4.878 2.547,5.89 C -3.695,3.523 -0.996,2.442 0,0"
           style="fill:#2f636d;fill-opacity:1;fill-rule:nonzero;stroke:none"
           id="path535" /></g></g></g><g
     id="g537"
     transform="matrix(0.35277776,0,0,-0.35277778,-75.175391,307.859)"><g
       id="g539"
       clip-path="url(#clipPath543)"
       style="fill:#2f636d;fill-opacity:1"><g
         id="g545"
         transform="translate(323.8584,848.2559)"
         style="fill:#2f636d;fill-opacity:1"><path
           d="m 0,0 c 3.198,-3.151 5.733,-6.766 7.593,-10.853 2.115,-4.651 3.196,-9.532 3.256,-14.638 0.019,-1.639 -1.206,-2.829 -2.774,-2.741 -1.28,0.071 -2.327,1.077 -2.432,2.373 -0.101,1.255 -0.114,2.518 -0.263,3.766 -0.554,4.632 -2.103,8.916 -4.598,12.861 -1.684,2.663 -3.732,5.01 -6.123,7.05 -2.764,2.359 -5.852,4.179 -9.261,5.455 -3.567,1.336 -7.252,1.98 -11.056,1.977 -1.738,-0.001 -2.943,1.312 -2.744,2.973 0.152,1.278 1.302,2.253 2.655,2.258 4.464,0.016 8.792,-0.736 12.975,-2.306 2.739,-1.028 5.315,-2.368 7.732,-4.02 C -3.234,2.921 -1.555,1.537 0,0"
           style="fill:#2f636d;fill-opacity:1;fill-rule:nonzero;stroke:none"
           id="path547" /></g><g
         id="g549"
         transform="translate(316.0665,841.186)"
         style="fill:#2f636d;fill-opacity:1"><path
           d="m 0,0 c 5.35,-5.472 7.95,-11.488 8.099,-18.545 0.03,-1.457 -1.077,-2.662 -2.469,-2.698 -1.541,-0.041 -2.732,1.067 -2.757,2.591 -0.055,3.444 -0.878,6.685 -2.534,9.712 -1.403,2.565 -3.27,4.737 -5.595,6.498 -3.719,2.818 -7.928,4.217 -12.598,4.212 -1.132,-0.001 -2.099,0.639 -2.499,1.648 -0.402,1.013 -0.147,2.168 0.674,2.912 0.452,0.409 0.993,0.648 1.616,0.662 2.501,0.052 4.952,-0.284 7.357,-0.959 C -7.944,5.258 -5.37,4.063 -3.035,2.401 -1.823,1.538 -0.696,0.555 0,0"
           style="fill:#2f636d;fill-opacity:1;fill-rule:nonzero;stroke:none"
           id="path551" /></g><g
         id="g553"
         transform="translate(309.2471,833.075)"
         style="fill:#2f636d;fill-opacity:1"><path
           d="m 0,0 c 2.73,-2.782 4.308,-6.36 4.363,-10.575 0.022,-1.702 -1.489,-2.921 -3.149,-2.585 -1.175,0.238 -2.039,1.251 -2.066,2.494 -0.044,2.06 -0.61,3.949 -1.781,5.648 -1.164,1.689 -2.707,2.906 -4.61,3.666 -1.229,0.492 -2.512,0.67 -3.829,0.703 -1.962,0.049 -3.16,2.077 -2.249,3.816 0.447,0.852 1.179,1.366 2.158,1.39 2.332,0.058 4.561,-0.419 6.679,-1.403 C -2.894,2.416 -1.478,1.426 0,0"
           style="fill:#2f636d;fill-opacity:1;fill-rule:nonzero;stroke:none"
           id="path555" /></g><g
         id="g557"
         transform="translate(301.7088,819.0546)"
         style="fill:#2f636d;fill-opacity:1"><path
           d="M 0,0 C -1.784,-1.842 -4.785,-1.879 -6.643,-0.081 -8.515,1.73 -8.57,4.716 -6.764,6.584 -4.938,8.475 -1.928,8.536 -0.07,6.721 1.814,4.881 1.845,1.906 0,0"
           style="fill:#2f636d;fill-opacity:1;fill-rule:nonzero;stroke:none"
           id="path559" /></g></g></g><path
     d="M 3.3513888,41.09861 H 45.038079 c 1.558572,0 2.822222,-1.26365 2.822222,-2.822222 V 3.3513888 c 0,-1.5585722 -1.26365,-2.82222214 -2.822222,-2.82222214 H 3.3513888 c -1.5585722,0 -2.82222214,1.26364994 -2.82222214,2.82222214 V 38.276388 c 0,1.558572 1.26364994,2.822222 2.82222214,2.822222 z"
     style="display:inline;fill:none;fill-opacity:1;stroke:#2f636d;stroke-width:1.05833;stroke-linecap:butt;stroke-linejoin:miter;stroke-miterlimit:10;stroke-dasharray:none;stroke-opacity:1"
     id="path583"
     inkscape:label="path511" /></svg>
