<?xml version="1.0" encoding="UTF-8" standalone="no" ?>
<!DOCTYPE svg PUBLIC "-//W3C//DTD SVG 1.1//EN" "http://www.w3.org/Graphics/SVG/1.1/DTD/svg11.dtd">
<svg xmlns="http://www.w3.org/2000/svg" xmlns:xlink="http://www.w3.org/1999/xlink" version="1.1" width="680" height="800" viewBox="0 0 680 800" xml:space="preserve">
<desc>Created with Fabric.js 5.2.4</desc>
<defs>
</defs>
<rect x="0" y="0" width="100%" height="100%" fill="transparent"></rect>
<g transform="matrix(1 0 0 1 340 400)" id="6650b78b-dea8-4415-b562-1d4190d0fdd5"  >
<rect style="stroke: none; stroke-width: 1; stroke-dasharray: none; stroke-linecap: butt; stroke-dashoffset: 0; stroke-linejoin: miter; stroke-miterlimit: 4; fill: rgb(255,255,255); fill-rule: nonzero; opacity: 1; visibility: hidden;" vector-effect="non-scaling-stroke"  x="-340" y="-400" rx="0" ry="0" width="680" height="800" />
</g>
<g transform="matrix(0 0 0 0 0 0)" id="b4f4d72c-70fe-4d1d-9e89-254ad60a6bd0"  >
</g>
<g transform="matrix(3.23 0 0 3.23 336.22 197.57)"  >
<path style="stroke: rgb(183,121,0); stroke-width: 0; stroke-dasharray: none; stroke-linecap: round; stroke-dashoffset: 0; stroke-linejoin: round; stroke-miterlimit: 1.5; fill: rgb(0,0,0); fill-rule: evenodd; opacity: 1;" vector-effect="non-scaling-stroke"  transform=" translate(-125, -59)" d="M 25 118 L 25 100 L 125 0 L 225 100 L 225 118 L 125 18 L 25 118 Z" stroke-linecap="round" />
</g>
<g transform="matrix(3.23 0 0 3.23 336.73 425.79)"  >
<path style="stroke: rgb(0,0,0); stroke-width: 1; stroke-dasharray: none; stroke-linecap: round; stroke-dashoffset: 0; stroke-linejoin: round; stroke-miterlimit: 1.5; fill: rgb(3,95,15); fill-rule: evenodd; opacity: 1;" vector-effect="non-scaling-stroke"  transform=" translate(-125, -133.5)" d="M 204 101 L 204 245 L 46 245 L 46 101 L 125 22 L 204 101 Z" stroke-linecap="round" />
</g>
<g transform="matrix(3.95 0 0 4.26 348.83 708.92)"  >
<ellipse style="stroke: rgb(0,0,0); stroke-width: 0; stroke-dasharray: none; stroke-linecap: round; stroke-dashoffset: 0; stroke-linejoin: round; stroke-miterlimit: 1.5; fill: rgb(0,0,0); fill-rule: evenodd; opacity: 1;" vector-effect="non-scaling-stroke"  cx="0" cy="0" rx="3.955" ry="3.671" />
</g>
<g transform="matrix(12.25 0 0 13.2 339.05 374.84)"  >
<ellipse style="stroke: rgb(0,0,0); stroke-width: 0; stroke-dasharray: none; stroke-linecap: round; stroke-dashoffset: 0; stroke-linejoin: round; stroke-miterlimit: 1.5; fill: rgb(255,255,255); fill-rule: evenodd; opacity: 1;" vector-effect="non-scaling-stroke"  cx="0" cy="0" rx="3.955" ry="3.671" />
</g>
<g transform="matrix(0 0 0 0 0 0)"  >
<g style=""   >
</g>
</g>
<g transform="matrix(0 0 0 0 0 0)"  >
<g style=""   >
</g>
</g>
<g transform="matrix(NaN NaN NaN NaN 0 0)"  >
<g style=""   >
</g>
</g>
<g transform="matrix(1 0 0 1 322.25 575.19)"  >
<g style="" vector-effect="non-scaling-stroke"   >
		<g transform="matrix(1 0 0 1 0 -8.11)"  >
<path style="stroke: none; stroke-width: 1; stroke-dasharray: none; stroke-linecap: butt; stroke-dashoffset: 0; stroke-linejoin: miter; stroke-miterlimit: 4; fill: rgb(1,110,210); fill-rule: nonzero; opacity: 1;" vector-effect="non-scaling-stroke"  transform=" translate(-136, -127.65)" d="M 264 52 L 229.83 52 C 229.07000000000002 50.4 228.25 48.84 227.34 47.33 C 212.6567629946652 22.136582284780513 181.09765545604574 12.427340089230427 154.79234773152444 25.010524529053583 C 128.48704000700315 37.59370896887674 116.24042772193741 68.2574846689642 126.64 95.49999999999999 L 23.81 198.25 L 23.81 198.25 L 8 214.14 L 19.189999999999998 225.32 L 48.47 217.51999999999998 C 93.47995897053264 244.53495154950062 150.41728361240928 241.3520391453465 192.1358311124729 209.48878745573023 C 233.85437861253652 177.62553576611396 251.90830613765164 123.53260120285637 237.69000000000003 73.00000000000003 Z" stroke-linecap="round" />
</g>
		<g transform="matrix(1 0 0 1 43.94 96.24)"  >
<rect style="stroke: none; stroke-width: 1; stroke-dasharray: none; stroke-linecap: butt; stroke-dashoffset: 0; stroke-linejoin: miter; stroke-miterlimit: 4; fill: rgb(1,110,210); fill-rule: nonzero; opacity: 1;" vector-effect="non-scaling-stroke"  x="-4.005" y="-20" rx="0" ry="0" width="8.01" height="40" />
</g>
		<g transform="matrix(1 0 0 1 3.91 96.24)"  >
<rect style="stroke: none; stroke-width: 1; stroke-dasharray: none; stroke-linecap: butt; stroke-dashoffset: 0; stroke-linejoin: miter; stroke-miterlimit: 4; fill: rgb(1,110,210); fill-rule: nonzero; opacity: 1;" vector-effect="non-scaling-stroke"  x="-4.005" y="-20" rx="0" ry="0" width="8.01" height="40" />
</g>
		<g transform="matrix(1 0 0 1 51.94 -79.76)"  >
<ellipse style="stroke: none; stroke-width: 1; stroke-dasharray: none; stroke-linecap: butt; stroke-dashoffset: 0; stroke-linejoin: miter; stroke-miterlimit: 4; fill: rgb(1,110,210); fill-rule: nonzero; opacity: 1;" vector-effect="non-scaling-stroke"  cx="0" cy="0" rx="12.01" ry="12" />
</g>
</g>
</g>
</svg>