<?xml version="1.0" encoding="UTF-8" standalone="no" ?>
<!DOCTYPE svg PUBLIC "-//W3C//DTD SVG 1.1//EN" "http://www.w3.org/Graphics/SVG/1.1/DTD/svg11.dtd">
<svg xmlns="http://www.w3.org/2000/svg" xmlns:xlink="http://www.w3.org/1999/xlink" version="1.1" width="680" height="800" viewBox="0 0 680 800" xml:space="preserve">
<desc>Created with Fabric.js 5.2.4</desc>
<defs>
</defs>
<rect x="0" y="0" width="100%" height="100%" fill="transparent"></rect>
<g transform="matrix(1 0 0 1 340 400)" id="6650b78b-dea8-4415-b562-1d4190d0fdd5"  >
<rect style="stroke: none; stroke-width: 1; stroke-dasharray: none; stroke-linecap: butt; stroke-dashoffset: 0; stroke-linejoin: miter; stroke-miterlimit: 4; fill: rgb(255,255,255); fill-rule: nonzero; opacity: 1; visibility: hidden;" vector-effect="non-scaling-stroke"  x="-340" y="-400" rx="0" ry="0" width="680" height="800" />
</g>
<g transform="matrix(0 0 0 0 0 0)" id="b4f4d72c-70fe-4d1d-9e89-254ad60a6bd0"  >
</g>
<g transform="matrix(3.23 0 0 3.23 336.22 197.57)"  >
<path style="stroke: rgb(183,121,0); stroke-width: 0; stroke-dasharray: none; stroke-linecap: round; stroke-dashoffset: 0; stroke-linejoin: round; stroke-miterlimit: 1.5; fill: rgb(0,0,0); fill-rule: evenodd; opacity: 1;" vector-effect="non-scaling-stroke"  transform=" translate(-125, -59)" d="M 25 118 L 25 100 L 125 0 L 225 100 L 225 118 L 125 18 L 25 118 Z" stroke-linecap="round" />
</g>
<g transform="matrix(3.23 0 0 3.23 336.73 425.79)"  >
<path style="stroke: rgb(0,0,0); stroke-width: 1; stroke-dasharray: none; stroke-linecap: round; stroke-dashoffset: 0; stroke-linejoin: round; stroke-miterlimit: 1.5; fill: rgb(110,110,110); fill-rule: evenodd; opacity: 1;" vector-effect="non-scaling-stroke"  transform=" translate(-125, -133.5)" d="M 204 101 L 204 245 L 46 245 L 46 101 L 125 22 L 204 101 Z" stroke-linecap="round" />
</g>
<g transform="matrix(3.95 0 0 4.26 348.83 708.92)"  >
<ellipse style="stroke: rgb(0,0,0); stroke-width: 0; stroke-dasharray: none; stroke-linecap: round; stroke-dashoffset: 0; stroke-linejoin: round; stroke-miterlimit: 1.5; fill: rgb(0,0,0); fill-rule: evenodd; opacity: 1;" vector-effect="non-scaling-stroke"  cx="0" cy="0" rx="3.955" ry="3.671" />
</g>
<g transform="matrix(12.25 0 0 13.2 339.05 374.84)"  >
<ellipse style="stroke: rgb(0,0,0); stroke-width: 0; stroke-dasharray: none; stroke-linecap: round; stroke-dashoffset: 0; stroke-linejoin: round; stroke-miterlimit: 1.5; fill: rgb(255,255,255); fill-rule: evenodd; opacity: 1;" vector-effect="non-scaling-stroke"  cx="0" cy="0" rx="3.955" ry="3.671" />
</g>
<g transform="matrix(0 0 0 0 0 0)"  >
<g style=""   >
</g>
</g>
<g transform="matrix(0 0 0 0 0 0)"  >
<g style=""   >
</g>
</g>
<g transform="matrix(NaN NaN NaN NaN 0 0)"  >
<g style=""   >
</g>
</g>
</svg>